<?xml version="1.0" encoding="utf-8"?>
<!-- Generator: Adobe Illustrator 16.0.0, SVG Export Plug-In . SVG Version: 6.00 Build 0)  -->
<!DOCTYPE svg PUBLIC "-//W3C//DTD SVG 1.1//EN" "http://www.w3.org/Graphics/SVG/1.1/DTD/svg11.dtd">
<svg version="1.1" id="레이어_1" xmlns="http://www.w3.org/2000/svg" xmlns:xlink="http://www.w3.org/1999/xlink" x="0px"
	 y="0px" width="85.039px" height="85.039px" viewBox="-7.084 -7.084 85.039 85.039"
	 enable-background="new -7.084 -7.084 85.039 85.039" xml:space="preserve">
<path fill="none" stroke="#FFFFFF" stroke-width="6" stroke-linecap="square" d="M48.064,11.067h6.233
	c3.443,0,6.233,2.791,6.233,6.233v43.634c0,3.441-2.79,6.231-6.233,6.231H16.9c-3.442,0-6.233-2.79-6.233-6.231V17.3
	c0-3.442,2.791-6.233,6.233-6.233h6.233"/>
<path fill="none" stroke="#FFFFFF" stroke-width="6" stroke-linecap="square" d="M26.25,4.834h18.699
	c1.723,0,3.115,1.396,3.115,3.117v6.233c0,1.721-1.395,3.116-3.115,3.116H26.25c-1.721,0-3.116-1.395-3.116-3.116V7.951
	C23.133,6.229,24.529,4.834,26.25,4.834z"/>
</svg>
