<?xml version="1.0" encoding="utf-8"?>
<!-- Generator: Adobe Illustrator 16.0.0, SVG Export Plug-In . SVG Version: 6.00 Build 0)  -->
<!DOCTYPE svg PUBLIC "-//W3C//DTD SVG 1.1//EN" "http://www.w3.org/Graphics/SVG/1.1/DTD/svg11.dtd">
<svg version="1.1" id="레이어_1" xmlns="http://www.w3.org/2000/svg" xmlns:xlink="http://www.w3.org/1999/xlink" x="0px"
	 y="0px" width="85.039px" height="85.039px" viewBox="-7.084 -7.084 85.039 85.039"
	 enable-background="new -7.084 -7.084 85.039 85.039" xml:space="preserve">
<g id="레이어_2">
</g>
<g id="레이어_1_1_">
	<path fill="none" stroke="#FFFFFF" stroke-width="6" stroke-linecap="square" d="M7.161,50.318v10.724
		c0,3.56,2.912,6.472,6.471,6.472h45.302c3.574,0,6.474-2.896,6.474-6.472V50.318 M48.48,42.879L36.512,54.848l-11.97-11.969
		 M36.512,51.52V31.504"/>
	<g>
		<path fill="#FFFFFF" d="M6.044,4.52h6.711c4.216,0,7.688,1.491,7.688,6.222c0,4.551-3.522,6.556-7.559,6.556h-2.237v6.351H6.044
			V4.52z M12.652,13.672c2.237,0,3.317-1.054,3.317-2.931c0-1.929-1.234-2.597-3.445-2.597h-1.877v5.528H12.652z"/>
		<path fill="#FFFFFF" d="M29.594,4.52h5.502c5.837,0,9.693,2.802,9.693,9.461c0,6.659-3.855,9.667-9.436,9.667h-5.76L29.594,4.52
			L29.594,4.52z M34.814,19.946c3.084,0,5.271-1.414,5.271-5.965c0-4.551-2.187-5.811-5.271-5.811h-0.617v11.775L34.814,19.946
			L34.814,19.946z"/>
		<path fill="#FFFFFF" d="M54.225,4.52h12.213v3.805h-7.608v4.191h6.528v3.831h-6.528v7.302h-4.604V4.52L54.225,4.52z"/>
	</g>
</g>
</svg>
