<?xml version="1.0" encoding="utf-8"?>
<!-- Generator: Adobe Illustrator 16.0.0, SVG Export Plug-In . SVG Version: 6.00 Build 0)  -->
<!DOCTYPE svg PUBLIC "-//W3C//DTD SVG 1.1//EN" "http://www.w3.org/Graphics/SVG/1.1/DTD/svg11.dtd">
<svg version="1.1" id="레이어_1" xmlns="http://www.w3.org/2000/svg" xmlns:xlink="http://www.w3.org/1999/xlink" x="0px"
	 y="0px" width="70.871px" height="70.871px" viewBox="0 0 70.871 70.871" enable-background="new 0 0 70.871 70.871"
	 xml:space="preserve">
<circle display="none" fill="#FFFFFF" stroke="#040000" stroke-miterlimit="10" cx="35.233" cy="35.442" r="32.468"/>
<path fill="#F2F2F2" d="M64.885,18.478c-2.162,0.99-4.467,1.641-6.828,1.929c2.506-1.544,4.365-3.941,5.237-6.752
	c-2.296,1.399-4.826,2.412-7.551,2.942c-2.226-2.444-5.38-3.838-8.683-3.835c-6.646,0.069-11.98,5.513-11.912,12.159
	c0.007,0.942,0.128,1.881,0.357,2.793c-9.612-0.524-18.533-5.164-24.479-12.733c-3.18,5.563-1.578,12.632,3.689,16.281
	c-1.89-0.071-3.737-0.6-5.378-1.544v0.168c0,5.883,4.102,10.804,9.527,11.938c-1.745,0.479-3.579,0.545-5.355,0.193
	c1.519,4.85,5.909,8.367,11.095,8.465C19.668,54.488,13.312,56.316,7,55.551c5.403,3.559,11.736,5.455,18.209,5.446
	c21.852,0,33.766-18.569,33.766-34.656v-1.569C61.291,23.06,63.294,20.914,64.885,18.478z"/>
</svg>
