<?xml version="1.0" encoding="utf-8"?>
<!-- Generator: Adobe Illustrator 19.1.0, SVG Export Plug-In . SVG Version: 6.00 Build 0)  -->
<svg version="1.1" xmlns="http://www.w3.org/2000/svg" xmlns:xlink="http://www.w3.org/1999/xlink" x="0px" y="0px"
	 viewBox="0 0 47 95" enable-background="new 0 0 47 95" xml:space="preserve">
<g id="레이어_1">
</g>
<g id="새플">
</g>
<g id="아이콘">
	<g>
	</g>
	<g>
		<g id="shadown_2_" opacity="0.3">
			
				<ellipse transform="matrix(-1 0.003 -0.003 -1 47.9285 12.5433)" opacity="0" fill="#FFFFFF" cx="23.955" cy="6.307" rx="23.955" ry="2.075"/>
			
				<ellipse transform="matrix(-1 0.003 -0.003 -1 47.9285 12.5433)" opacity="0.0476" fill="#F6F7F8" cx="23.955" cy="6.307" rx="23.552" ry="1.997"/>
			
				<ellipse transform="matrix(-1 0.003 -0.003 -1 47.9285 12.5433)" opacity="0.0952" fill="#EEEEF1" cx="23.955" cy="6.307" rx="23.149" ry="1.919"/>
			
				<ellipse transform="matrix(-1 0.003 -0.003 -1 47.9285 12.5434)" opacity="0.1429" fill="#E5E6EA" cx="23.955" cy="6.307" rx="22.746" ry="1.841"/>
			
				<ellipse transform="matrix(-1 0.003 -0.003 -1 47.9285 12.5434)" opacity="0.1905" fill="#DCDEE3" cx="23.955" cy="6.307" rx="22.343" ry="1.762"/>
			
				<ellipse transform="matrix(-1 0.003 -0.003 -1 47.9285 12.5434)" opacity="0.2381" fill="#D4D5DC" cx="23.955" cy="6.307" rx="21.94" ry="1.684"/>
			
				<ellipse transform="matrix(-1 0.003 -0.003 -1 47.9285 12.5434)" opacity="0.2857" fill="#CBCDD5" cx="23.955" cy="6.307" rx="21.537" ry="1.606"/>
			
				<ellipse transform="matrix(-1 0.003 -0.003 -1 47.9285 12.5434)" opacity="0.3333" fill="#C2C5CE" cx="23.955" cy="6.307" rx="21.134" ry="1.528"/>
			
				<ellipse transform="matrix(-1 0.003 -0.003 -1 47.9285 12.5434)" opacity="0.381" fill="#BABCC7" cx="23.955" cy="6.307" rx="20.73" ry="1.449"/>
			
				<ellipse transform="matrix(-1 0.003 -0.003 -1 47.9285 12.5434)" opacity="0.4286" fill="#B1B4C0" cx="23.955" cy="6.307" rx="20.327" ry="1.371"/>
			
				<ellipse transform="matrix(-1 0.003 -0.003 -1 47.9285 12.5434)" opacity="0.4762" fill="#A8ACB9" cx="23.955" cy="6.307" rx="19.924" ry="1.293"/>
			
				<ellipse transform="matrix(-1 0.003 -0.003 -1 47.9285 12.5434)" opacity="0.5238" fill="#A0A3B1" cx="23.955" cy="6.307" rx="19.521" ry="1.215"/>
			
				<ellipse transform="matrix(-1 0.003 -0.003 -1 47.9285 12.5434)" opacity="0.5714" fill="#979BAA" cx="23.955" cy="6.307" rx="19.118" ry="1.136"/>
			
				<ellipse transform="matrix(-1 0.003 -0.003 -1 47.9285 12.5434)" opacity="0.619" fill="#8E93A3" cx="23.955" cy="6.307" rx="18.715" ry="1.058"/>
			
				<ellipse transform="matrix(-1 0.003 -0.003 -1 47.9285 12.5434)" opacity="0.6667" fill="#868A9C" cx="23.955" cy="6.307" rx="18.312" ry="0.98"/>
			
				<ellipse transform="matrix(-1 0.003 -0.003 -1 47.9285 12.5434)" opacity="0.7143" fill="#7D8295" cx="23.955" cy="6.307" rx="17.909" ry="0.901"/>
			
				<ellipse transform="matrix(-1 0.003 -0.003 -1 47.9285 12.5433)" opacity="0.7619" fill="#747A8E" cx="23.955" cy="6.307" rx="17.506" ry="0.823"/>
			
				<ellipse transform="matrix(-1 0.003 -0.003 -1 47.9285 12.5433)" opacity="0.8095" fill="#6C7187" cx="23.955" cy="6.307" rx="17.103" ry="0.745"/>
			
				<ellipse transform="matrix(-1 0.003 -0.003 -1 47.9285 12.5433)" opacity="0.8571" fill="#636980" cx="23.955" cy="6.307" rx="16.7" ry="0.667"/>
			
				<ellipse transform="matrix(-1 0.003 -0.003 -1 47.9285 12.5433)" opacity="0.9048" fill="#5A6179" cx="23.955" cy="6.307" rx="16.297" ry="0.588"/>
			
				<ellipse transform="matrix(-1 0.003 -0.003 -1 47.9285 12.5433)" opacity="0.9524" fill="#525872" cx="23.955" cy="6.307" rx="15.894" ry="0.51"/>
			
				<ellipse transform="matrix(-1 0.003 -0.003 -1 47.9285 12.5433)" fill="#49506B" cx="23.955" cy="6.307" rx="15.491" ry="0.432"/>
		</g>
		<g opacity="0.2">
			<path opacity="0" d="M38.18,1.953c-1.882,0-3.408,2.244-3.408,5.013l0,0v71.968l-14.045,7.451L6.683,78.934V6.89
				c0-2.766,1.523-4.933,3.402-4.938c0.001,0,0.002,0,0.003,0H38.18z"/>
			<path opacity="0.0909" d="M38.156,1.866c-1.882,0-3.408,2.244-3.408,5.013l0,0v71.968l-14.045,7.451L6.659,78.847V6.804
				c0-2.766,1.523-4.933,3.402-4.938c0.001,0,0.002,0,0.003,0H38.156z"/>
			<path opacity="0.1818" d="M38.133,1.779c-1.882,0-3.408,2.244-3.408,5.013l0,0v71.968L20.68,86.212L6.636,78.761V6.717
				c0-2.766,1.523-4.933,3.402-4.938c0.001,0,0.002,0,0.003,0H38.133z"/>
			<path opacity="0.2727" d="M38.109,1.693c-1.882,0-3.408,2.244-3.408,5.013l0,0v71.968l-14.045,7.451L6.612,78.674V6.631
				c0-2.766,1.523-4.933,3.402-4.938c0.001,0,0.002,0,0.003,0H38.109z"/>
			<path opacity="0.3636" d="M38.085,1.606c-1.882,0-3.408,2.244-3.408,5.013l0,0v71.968l-14.045,7.451L6.589,78.587V6.544
				c0-2.766,1.523-4.933,3.402-4.938c0.001,0,0.002,0,0.003,0H38.085z"/>
			<path opacity="0.4545" d="M38.062,1.52c-1.882,0-3.408,2.244-3.408,5.013l0,0v71.968l-14.045,7.451L6.565,78.501V6.457
				c0-2.766,1.523-4.933,3.402-4.938c0.001,0,0.002,0,0.003,0H38.062z"/>
			<path opacity="0.5455" d="M38.038,1.433c-1.882,0-3.408,2.244-3.408,5.013l0,0v71.968l-14.045,7.451L6.541,78.414V6.371
				c0-2.766,1.523-4.933,3.402-4.938c0.001,0,0.002,0,0.003,0H38.038z"/>
			<path opacity="0.6364" d="M38.015,1.346c-1.882,0-3.408,2.244-3.408,5.013l0,0v71.968l-14.045,7.451L6.518,78.328V6.284
				c0-2.766,1.523-4.933,3.402-4.938c0.001,0,0.002,0,0.003,0H38.015z"/>
			<path opacity="0.7273" d="M37.991,1.26c-1.882,0-3.408,2.244-3.408,5.013l0,0v71.968l-14.045,7.451L6.494,78.241V6.198
				c0-2.766,1.523-4.933,3.402-4.938c0.001,0,0.002,0,0.003,0H37.991z"/>
			<path opacity="0.8182" d="M37.967,1.173c-1.882,0-3.408,2.244-3.408,5.013l0,0v71.968l-14.045,7.451L6.47,78.154V6.111
				c0-2.766,1.523-4.933,3.402-4.938c0.001,0,0.002,0,0.003,0H37.967z"/>
			<path opacity="0.9091" d="M37.944,1.087c-1.882,0-3.408,2.244-3.408,5.013l0,0v71.968l-14.045,7.451L6.447,78.068V6.024
				c0-2.766,1.523-4.933,3.402-4.938c0.001,0,0.002,0,0.003,0H37.944z"/>
			<path d="M37.92,1c-1.882,0-3.408,2.244-3.408,5.013l0,0v71.968l-14.045,7.451L6.423,77.981V5.938
				c0-2.766,1.523-4.933,3.402-4.938c0.001,0,0.002,0,0.003,0H37.92z"/>
		</g>
		<g>
			<linearGradient id="SVGID_1_" gradientUnits="userSpaceOnUse" x1="35.7444" y1="6.8615" x2="40.5405" y2="2.0654">
				<stop  offset="0" style="stop-color:#012638"/>
				<stop  offset="0.755" style="stop-color:#024A64"/>
			</linearGradient>
			<path fill="url(#SVGID_1_)" d="M41.328,6.013C41.328,3.244,39.802,1,37.92,1c-1.882,0-3.408,2.244-3.408,5.013H41.328z"/>
			<linearGradient id="SVGID_2_" gradientUnits="userSpaceOnUse" x1="22.1717" y1="85.6797" x2="22.1717" y2="1.3646">
				<stop  offset="0" style="stop-color:#1B6F90"/>
				<stop  offset="0.753" style="stop-color:#1B6F90"/>
				<stop  offset="0.9036" style="stop-color:#3A92C0"/>
				<stop  offset="0.994" style="stop-color:#034B64"/>
			</linearGradient>
			<path fill="url(#SVGID_2_)" d="M37.92,1c-1.882,0-3.408,2.244-3.408,5.013l0,0v71.968l-14.045,7.451L6.423,77.981V5.938
				c0-2.766,1.523-4.933,3.402-4.938c0.001,0,0.002,0,0.003,0H37.92z"/>
			<linearGradient id="SVGID_3_" gradientUnits="userSpaceOnUse" x1="22.1717" y1="-53.9837" x2="22.1717" y2="49.3581">
				<stop  offset="0" style="stop-color:#1B6F90"/>
				<stop  offset="0.3448" style="stop-color:#1B6F90"/>
				<stop  offset="0.994" style="stop-color:#034B64"/>
			</linearGradient>
			<path fill="url(#SVGID_3_)" d="M36.652,1c-1.397,0.626-2.414,2.535-2.414,4.796h0v71.968l-14.044,7.451L6.423,77.91v0.072
				l14.044,7.451l14.045-7.451V6.013l0,0C34.512,3.244,36.038,1,37.92,1H36.652z"/>
		</g>
	</g>
</g>
<g id="book">
</g>
<g id="레이어_4">
</g>
<g id="레이어_6">
</g>
</svg>
