<?xml version="1.0" encoding="utf-8"?>
<!-- Generator: Adobe Illustrator 16.0.0, SVG Export Plug-In . SVG Version: 6.00 Build 0)  -->
<!DOCTYPE svg PUBLIC "-//W3C//DTD SVG 1.1//EN" "http://www.w3.org/Graphics/SVG/1.1/DTD/svg11.dtd">
<svg version="1.1" id="레이어_1" xmlns="http://www.w3.org/2000/svg" xmlns:xlink="http://www.w3.org/1999/xlink" x="0px"
	 y="0px" width="85.039px" height="85.039px" viewBox="0 0 85.039 85.039" enable-background="new 0 0 85.039 85.039"
	 xml:space="preserve">
<path fill="none" stroke="#555555" stroke-width="6" stroke-linecap="square" d="M54.986,17.587h6.231
	c3.442,0,6.231,2.791,6.231,6.233v43.634c0,3.44-2.789,6.231-6.231,6.231H23.822c-3.442,0-6.233-2.791-6.233-6.231V23.82
	c0-3.442,2.791-6.233,6.233-6.233h6.233"/>
<path fill="none" stroke="#555555" stroke-width="6" stroke-linecap="square" d="M33.172,11.354h18.7
	c1.724,0,3.114,1.396,3.114,3.117v6.233c0,1.721-1.396,3.116-3.114,3.116h-18.7c-1.721,0-3.116-1.395-3.116-3.116v-6.233
	C30.055,12.749,31.451,11.354,33.172,11.354z"/>
</svg>
