<?xml version="1.0" encoding="utf-8"?>
<!-- Generator: Adobe Illustrator 16.0.0, SVG Export Plug-In . SVG Version: 6.00 Build 0)  -->
<!DOCTYPE svg PUBLIC "-//W3C//DTD SVG 1.1//EN" "http://www.w3.org/Graphics/SVG/1.1/DTD/svg11.dtd">
<svg version="1.1" id="레이어_1" xmlns="http://www.w3.org/2000/svg" xmlns:xlink="http://www.w3.org/1999/xlink" x="0px"
	 y="0px" width="85.039px" height="85.039px" viewBox="0 0 85.039 85.039" enable-background="new 0 0 85.039 85.039"
	 xml:space="preserve">
<path fill="none" stroke="#555555" stroke-width="6" stroke-linecap="square" d="M13.44,56.82v10.725
	c0,3.561,2.912,6.473,6.471,6.473h45.302c3.574,0,6.477-2.896,6.477-6.473V56.82 M54.76,49.382l-11.969,11.97l-11.97-11.97
	 M42.791,58.021V38.007"/>
<g>
	<path fill="#555555" d="M12.323,11.023h6.711c4.216,0,7.688,1.491,7.688,6.222c0,4.551-3.522,6.556-7.559,6.556h-2.237v6.351
		h-4.603V11.023z M18.931,20.175c2.237,0,3.317-1.054,3.317-2.931c0-1.929-1.234-2.597-3.445-2.597h-1.877v5.528H18.931z"/>
	<path fill="#555555" d="M35.873,11.023h5.502c5.837,0,9.693,2.802,9.693,9.461c0,6.659-3.855,9.667-9.438,9.667h-5.76
		L35.873,11.023L35.873,11.023z M41.093,26.449c3.084,0,5.271-1.414,5.271-5.965c0-4.551-2.188-5.811-5.271-5.811h-0.617v11.775
		L41.093,26.449L41.093,26.449z"/>
	<path fill="#555555" d="M60.504,11.023h12.213v3.805h-7.607v4.191h6.527v3.831h-6.527v7.302h-4.604V11.023H60.504z"/>
</g>
</svg>
